<?xml version="1.0" encoding="UTF-8" standalone="no"?>
<!-- Created with Inkscape (http://www.inkscape.org/) -->

<svg
   xmlns:dc="http://purl.org/dc/elements/1.1/"
   xmlns:cc="http://creativecommons.org/ns#"
   xmlns:rdf="http://www.w3.org/1999/02/22-rdf-syntax-ns#"
   xmlns:svg="http://www.w3.org/2000/svg"
   xmlns="http://www.w3.org/2000/svg"
   xmlns:sodipodi="http://sodipodi.sourceforge.net/DTD/sodipodi-0.dtd"
   xmlns:inkscape="http://www.inkscape.org/namespaces/inkscape"
   id="svg2"
   version="1.1"
   inkscape:version="0.48.4 r9939"
   width="740"
   height="740"
   sodipodi:docname="logo.svg"
   inkscape:export-filename="/home/julian/Webproject/img/logo.png"
   inkscape:export-xdpi="90"
   inkscape:export-ydpi="90">
  <metadata
     id="metadata8">
    <rdf:RDF>
      <cc:Work
         rdf:about="">
        <dc:format>image/svg+xml</dc:format>
        <dc:type
           rdf:resource="http://purl.org/dc/dcmitype/StillImage" />
        <dc:title></dc:title>
      </cc:Work>
    </rdf:RDF>
  </metadata>
  <defs
     id="defs6" />
  <sodipodi:namedview
     pagecolor="#ffffff"
     bordercolor="#666666"
     borderopacity="1"
     objecttolerance="10"
     gridtolerance="10"
     guidetolerance="10"
     inkscape:pageopacity="0"
     inkscape:pageshadow="2"
     inkscape:window-width="1366"
     inkscape:window-height="702"
     id="namedview4"
     showgrid="false"
     showguides="false"
     inkscape:zoom="0.31891892"
     inkscape:cx="1257.8255"
     inkscape:cy="495.42373"
     inkscape:window-x="0"
     inkscape:window-y="27"
     inkscape:window-maximized="1"
     inkscape:current-layer="svg2" />
  <g
     id="g3781"
     transform="translate(-1063.6925,414.773)">
    <path
       style="fill:#71c837;stroke:#000000;stroke-width:5;stroke-miterlimit:4;stroke-opacity:1;stroke-dasharray:none"
       d="m 1399.4993,321.38394 c -18.5653,-1.55481 -34.9612,-4.38882 -55.2094,-9.54289 -151.0432,-38.44706 -263.6391,-170.30039 -276.5826,-323.886901 -7.4614,-88.536439 12.6563,-168.987349 60.0241,-240.036629 56.4206,-84.62814 144.1943,-142.21186 243.7987,-159.94359 36.473,-6.49298 92.8211,-6.49298 129.2941,0 41.445,7.37809 83.2297,22.50775 119.353,43.21601 104.5862,59.95576 174.8034,169.2374 184.5535,287.227579 2.6422,31.97399 1.2605,70.43746 -3.5365,98.44701 -15.0091,87.638581 -63.3116,168.999541 -134.017,225.739061 -11.4023,9.15002 -36.7219,26.30151 -49.5,33.5312 -34.3077,19.41082 -76.8664,34.60785 -116.853,41.72632 -26.6859,4.75067 -69.0689,6.22423 -101.3249,3.52283 z"
       id="path3001"
       inkscape:connector-curvature="0" />
    <path
       style="fill:#030301"
       d="m 1418.6018,321.99079 c -7.9968,-0.45752 -3.2416,-0.68331 17.4166,-0.82702 15.6292,-0.10872 28.2292,-0.0324 28,0.16968 -0.8697,0.76678 -34.896,1.25926 -45.4166,0.65734 z m -29,-64.04858 c -80.954,-8.93301 -149.9009,-49.37541 -195.1609,-114.47611 -29.6994,-42.7189 -49.1526,-99.812924 -55.3182,-162.355954 -1.3141,-13.32998 -1.3118,-46.55921 0,-60.43682 5.6999,-60.107006 30.1761,-118.097646 69.5237,-164.720066 49.5642,-58.72798 118.0632,-93.02217 208.9512,-104.61188 16.8777,-2.15219 58.7544,-2.45096 73.5,-0.52438 62.751,8.19872 118.2638,34.44406 158.9844,75.16468 41.873,41.873 67.332,98.53223 75.0215,166.9608 1.3784,12.266046 1.3338,42.531046 -0.08,54.314866 -3.7327,31.11295 -14.1268,59.8298901 -30.6191,84.59488 -23.7904,35.72372 -60.578,56.12365 -101.8929,56.50292 -11.5187,0.10574 -12.2755,0.24226 -16.1225,2.90856 -19.9981,13.860304 -47.4598,7.47341 -57.1756,-13.29761 -2.1216,-4.53565 -2.5765,-6.99036 -2.5943,-14 -0.019,-7.31677 0.3692,-9.29591 2.786,-14.21758 3.8648,-7.87022 10.4015,-14.27574 18.4676,-18.09677 6.0909,-2.8854 7.6201,-3.18565 16.2248,-3.18565 11.4424,0 16.0841,1.54936 25.5287,8.52122 9.7982,7.23291 15.995,9.27481 26.4713,8.72255 15.7501,-0.83027 28.6452,-7.16245 42.0438,-20.64587 7.2023,-7.24794 9.4224,-10.32501 14.1397,-19.5978999 6.4527,-12.68443 11.8296,-28.6692001 14.4641,-43.0000001 2.7243,-14.81922 2.4699,-50.92381 -0.4887,-69.344526 -8.5514,-53.24365 -26.7858,-95.99742 -55.0633,-129.10547 -35.0735,-41.0651 -82.9083,-66.3576 -138.0956,-73.01774 -14.0356,-1.69384 -47.1419,-1.46161 -62.5,0.43841 -39.1474,4.84312 -68.4662,13.0773 -98,27.52332 -24.3262,11.89874 -42.1018,24.56343 -61.0295,43.48193 -33.2661,33.25 -56.7533,75.06157 -67.913,120.8976 -6.1886,25.418816 -7.0243,33.034636 -7.0365,64.126476 -0.01,25.86586 0.2042,29.36214 2.8122,45.8712401 4.6492,29.4292699 11.0316,53.0438299 20.758,76.8031499 33.2326,81.179674 100.0637,133.714144 184.9088,145.352824 7.2861,0.99948 18.6452,1.56941 31,1.5554 27.516,-0.0312 46.5925,-2.23573 75,-8.66717 49.7858,-11.27151 91.3696,-28.1589 125.5996,-51.00666 6.1048,-4.07483 11.5326,-7.40878 12.0618,-7.40878 0.8119,0 9.3605,37.20303 9.3441,40.66487 -0.01,1.46947 -17.2151,12.33695 -31.0055,19.58097 -40.1664,21.09914 -95.7533,38.16108 -149.5,45.88779 -15.8364,2.27666 -63.7983,3.4096 -78,1.84248 z m -36.8277,-119.35375 c -6.6513,-1.86357 -12.5638,-6.27647 -16.1234,-12.03393 -2.3865,-3.86015 -3.0777,-6.25507 -3.3875,-11.73708 -0.7941,-14.05423 7.4644,-24.747384 21.9863,-28.467714 5.2982,-1.35735 7.1361,-1.41602 11.8133,-0.37716 7.4968,1.66511 11.9979,4.09877 16.2158,8.76751 12.0798,13.370854 7.2888,34.087514 -9.6797,41.855934 -6.4459,2.95105 -14.6142,3.73256 -20.8248,1.99244 z m -58.6723,-67.622364 c -3.6799,-3.67983 -1.5901,-9.02394 4.253,-10.87621 1.7859,-0.5661 60.172,-13.03606 129.747,-27.71103 69.575,-14.67497 127.0649,-27.2022299 127.7553,-27.8383399 1.0056,-0.92648 0.9261,-3.60094 -0.3999,-13.44395 -0.9104,-6.7580601 -2.2439,-12.8760801 -2.9634,-13.5956001 -1.0777,-1.07762 -2.4173,-1.07431 -7.6001,0.0188 -3.4606,0.72986 -59.3919,12.5702301 -124.2919,26.3119301 -64.9001,13.7416899 -120.8125,25.5585599 -124.25,26.2597099 -3.9431,0.80427 -6.5922,0.92414 -7.1772,0.32474 -0.895,-0.91684 -9.6025,-21.6458099 -40.3055,-95.95005 -18.2651,-44.203076 -17.2203,-41.459876 -16.1617,-42.435656 0.7663,-0.70634 47.553,-17.09481 183.3944,-64.23939 83.5408,-28.99337 109.6188,-38.197 110.75,-39.0867 0.6875,-0.54073 1.25,-2.72804 1.25,-4.86069 0,-5.29063 2.8505,-8.09651 7.8069,-7.68453 3.1669,0.26324 3.9606,0.85473 5.5707,4.15174 1.6094,3.29555 2.2522,3.77501 4.5,3.35645 1.4423,-0.26858 12.4075,-4.81122 24.3672,-10.09477 24.9526,-11.02358 28.9107,-11.84442 31.1727,-6.46465 2.7795,6.61046 2.5132,6.79009 -32.4175,21.86469 -11.825,5.10316 -22.1136,9.844 -22.8635,10.5352 -1.1471,1.05725 -0.6205,7.02665 3.3176,37.60752 2.5746,19.99294 5.7396,42.63972 7.0332,50.32618 1.2937,7.68647 2.1641,14.279596 1.9343,14.651406 -0.2298,0.37182 0.691,8.48289 2.0463,18.02461 4.5329,31.91471 11.5434,86.3125401 11.5377,89.5271601 -0.01,3.8763899 -1.9199,5.9349899 -6.8003,7.3177299 -7.6831,2.1768 -263.7372,56.0037 -266.4091,56.0037 -1.538,0 -3.6963,-0.9 -4.7962,-2 z m 20.67,-58.55507 c 6.5065,-1.40529 12.2527,-2.9755499 12.7694,-3.4894599 0.9652,-0.95993 0.2329,-3.72252 -9.796,-36.9554701 -4.8753,-16.15551 -5.4678,-17.51743 -7.7122,-17.72684 -1.3372,-0.12476 -9.1759,1.2294 -17.4193,3.00923 -12.0009,2.59111 -15.0561,3.58924 -15.3294,5.00811 -0.2828,1.46838 4.5917,13.84915 19.2759,48.9595 1.9187,4.58751 2.3675,4.61696 18.2116,1.19493 z m 58.1106,-12.2823699 c 15.0043,-3.20309 27.7909,-6.33409 28.4146,-6.95777 0.8453,-0.8453 -0.7399,-7.6541101 -6.2267,-26.7463701 -4.0484,-14.08681 -7.8869,-26.33213 -8.5302,-27.21182 -1.0538,-1.44125 -3.9648,-0.99566 -29.4323,4.50538 -15.5446,3.35764 -28.6871,6.52911 -29.2057,7.04769 -0.5905,0.5905 1.3242,8.55885 5.1233,21.3216 9.4342,31.6932301 10.2045,33.8885101 11.8854,33.8719101 0.38,-0.004 12.9672,-2.62754 27.9716,-5.83062 z m 83.8785,-17.7381501 c 19.7125,-4.16657 36.4099,-8.12669 37.1054,-8.80025 1.0162,-0.98413 0.06,-6.32139 -4.8683,-27.17441 -3.373,-14.27236 -6.7204,-26.57447 -7.4385,-27.33802 -1.1086,-1.17868 -6.8653,-0.22698 -38.1317,6.30399 -20.2543,4.23073 -37.8385,8.1083 -39.076,8.61682 -1.2375,0.50852 -2.25,1.60266 -2.25,2.43142 0,1.23915 12.9948,48.13835 14.4874,52.28604 0.2474,0.6875 1.323,1.25 2.3903,1.25 1.0673,0 18.069,-3.40902 37.7814,-7.57559 z m 85.1817,-18.053 c 4.5874,-0.92465 8.5563,-2.24271 8.8196,-2.92903 0.7466,-1.94551 -6.4027,-54.58468 -7.5724,-55.75435 -1.1822,-1.18215 -42.2474,7.00154 -44.942,8.95627 -1.4089,1.02207 -0.9108,3.9596 4.663,27.5 3.7767,15.95078 6.8278,26.7977 7.7284,27.47528 1.1238,0.84549 4.1167,0.54591 12.2253,-1.22371 5.9055,-1.28881 14.4906,-3.09982 19.0781,-4.02446 z m -252.1501,-20.47658 c 8.1451,-1.70785 15.4462,-3.71086 16.2247,-4.45115 1.2155,-1.1559 0.8181,-3.3652 -2.8144,-15.64483 -10.322,-34.893386 -11.021,-36.798846 -13.4987,-36.798846 -2.999,0 -35.7146,11.68367 -37.3806,13.349646 -1.0494,1.04946 0.3087,5.1517 7.3558,22.21872 4.7536,11.5124 9.0592,21.71913 9.5679,22.68163 1.2574,2.37896 3.4151,2.23664 20.5452,-1.35517 z m 63.0124,-13.35122 c 14.2483,-3.00102 26.669,-5.74917 27.6014,-6.10699 0.9325,-0.35783 1.6955,-1.43251 1.6955,-2.38819 0,-1.51678 -13.2294,-49.028416 -16.0937,-57.798426 -0.5838,-1.7875 -1.6604,-3.25 -2.3925,-3.25 -1.9402,0 -55.8121,18.89824 -56.8605,19.94664 -0.5151,0.51509 1.7009,9.61231 5.2907,21.719836 9.9291,33.48862 9.8707,33.33352 12.5361,33.33352 1.2743,0 13.9747,-2.45538 28.223,-5.45639 z m 86.5696,-18.37013 c 20.225,-4.30045 37.2674,-8.31367 37.872,-8.91826 0.7991,-0.79902 -1.1181,-10.202216 -7.0192,-34.427236 -10.1114,-41.50881 -9.918,-40.82798 -11.5942,-40.82798 -0.7636,0 -12.783,3.98535 -26.7098,8.85632 -13.9269,4.87098 -31.1078,10.83348 -38.18,13.25 -7.0721,2.41653 -13.1136,5.03652 -13.4255,5.82221 -0.3119,0.78569 0.2482,4.61069 1.2447,8.5 1.5069,5.88194 13.3557,48.010616 15.1374,53.821466 0.3373,1.09989 1.5332,1.7486 3.2192,1.74624 1.4755,-0.002 19.2304,-3.52231 39.4554,-7.82276 z m 78.8998,-16.686796 c 11.6898,-2.48233 21.6898,-4.949 22.2223,-5.4815 1.0785,-1.07854 -0.3487,-14.33203 -6.2465,-58.00518 l -3.7137,-27.5 -3.4673,0.0837 c -1.907,0.046 -14.2674,3.91158 -27.4673,8.5901 -21.8284,7.73669 -24.0262,8.72445 -24.2892,10.91629 -0.2298,1.91556 15.4708,69.81552 17.2638,74.6599 0.6955,1.879236 2.6485,1.631216 25.6979,-3.26332 z m -451.3582,69.763316 c -0.2744,-8.6625 -0.1997,-21.375 0.1659,-28.25 0.5362,-10.0821 0.6991,-7.03555 0.8423,15.75 0.098,15.5375 0.023,28.25 -0.1659,28.25 -0.1889,0 -0.5679,-7.0875 -0.8423,-15.75 z m 737.4852,-12.25 c 0,-25.07677 0.093,-26.78839 0.7751,-14.25 0.4263,7.8375 0.4263,20.6625 0,28.5 -0.682,12.53839 -0.7751,10.82677 -0.7751,-14.25 z M 1421.8518,-416.10857 c 7.8375,-0.4263 20.6624,-0.4263 28.5,0 12.5383,0.682 10.8267,0.7751 -14.25,0.7751 -25.0768,0 -26.7884,-0.0931 -14.25,-0.7751 z"
       id="path2989"
       inkscape:connector-curvature="0" />
  </g>
</svg>
